<?xml version="1.0" encoding="UTF-8" standalone="no"?>
<!-- Created with Inkscape (http://www.inkscape.org/) -->

<svg
   xmlns:dc="http://purl.org/dc/elements/1.1/"
   xmlns:cc="http://creativecommons.org/ns#"
   xmlns:rdf="http://www.w3.org/1999/02/22-rdf-syntax-ns#"
   xmlns:svg="http://www.w3.org/2000/svg"
   xmlns="http://www.w3.org/2000/svg"
   xmlns:sodipodi="http://sodipodi.sourceforge.net/DTD/sodipodi-0.dtd"
   xmlns:inkscape="http://www.inkscape.org/namespaces/inkscape"
   width="400mm"
   height="500mm"
   viewBox="0 0 400 500"
   version="1.1"
   id="svg119"
   inkscape:version="0.92.1 r"
   sodipodi:docname="slogan.svg"
   inkscape:export-filename="/home/pp/github/casm/var/logo/logo/48.png"
   inkscape:export-xdpi="10.16"
   inkscape:export-ydpi="10.16">
  <defs
     id="defs113">
    <radialGradient
       id="radialGradient4120"
       gradientUnits="userSpaceOnUse"
       cy="63.965"
       cx="15.116"
       gradientTransform="scale(1.644,0.60828)"
       r="12.289">
      <stop
         id="stop4116"
         offset="0" />
      <stop
         id="stop4118"
         stop-opacity="0"
         offset="1" />
    </radialGradient>
    <radialGradient
       id="radialGradient377"
       gradientUnits="userSpaceOnUse"
       cy="15.716"
       cx="18.247999"
       gradientTransform="scale(0.99999,1)"
       r="29.993">
      <stop
         id="stop3964"
         stop-color="#d3e9ff"
         offset="0" />
      <stop
         id="stop4134"
         stop-color="#d3e9ff"
         offset=".15517" />
      <stop
         id="stop4346"
         stop-color="#4074ae"
         offset=".75" />
      <stop
         id="stop3966"
         stop-color="#36486c"
         offset="1" />
    </radialGradient>
    <radialGradient
       id="radialGradient4356"
       gradientUnits="userSpaceOnUse"
       cy="10.476"
       cx="11.827"
       gradientTransform="scale(1.1795,0.84779)"
       r="32.665001">
      <stop
         id="stop4352"
         stop-color="#fff"
         offset="0" />
      <stop
         id="stop4354"
         stop-color="#fff"
         stop-opacity="0"
         offset="1" />
    </radialGradient>
    <radialGradient
       id="radialGradient636"
       fx="18.934"
       fy="17.809999"
       gradientUnits="userSpaceOnUse"
       cy="17.486"
       cx="18.634001"
       gradientTransform="matrix(1.0185,0,0,0.94748,-0.080952,0.030883)"
       r="40.693001">
      <stop
         id="stop4752"
         stop-color="#fff"
         offset="0" />
      <stop
         id="stop4758"
         stop-color="#fefefe"
         offset=".37931" />
      <stop
         id="stop4754"
         stop-color="#1d1d1d"
         offset="1" />
    </radialGradient>
    <radialGradient
       id="radialGradient293"
       gradientUnits="userSpaceOnUse"
       cy="12.142"
       cx="15.601"
       gradientTransform="scale(0.99999,1)"
       r="43.527">
      <stop
         id="stop4128"
         stop-color="#fff"
         offset="0" />
      <stop
         id="stop4130"
         stop-color="#fff"
         stop-opacity=".16495"
         offset="1" />
    </radialGradient>
    <radialGradient
       id="radialGradient4120-9"
       gradientUnits="userSpaceOnUse"
       cy="63.965"
       cx="15.116"
       gradientTransform="matrix(0.43497499,0,0,0.20008154,136.23277,104.43619)"
       r="12.289">
      <stop
         id="stop4116-7"
         offset="0" />
      <stop
         id="stop4118-3"
         stop-opacity="0"
         offset="1" />
    </radialGradient>
    <radialGradient
       id="radialGradient377-5"
       gradientUnits="userSpaceOnUse"
       cy="15.716"
       cx="18.247999"
       gradientTransform="matrix(0.99999,0,0,1,8.0991522,67.658686)"
       r="29.993">
      <stop
         id="stop3964-9"
         stop-color="#d3e9ff"
         offset="0" />
      <stop
         id="stop4134-2"
         stop-color="#d3e9ff"
         offset=".15517" />
      <stop
         id="stop4346-2"
         stop-color="#4074ae"
         offset=".75" />
      <stop
         id="stop3966-8"
         stop-color="#36486c"
         offset="1" />
    </radialGradient>
    <radialGradient
       id="radialGradient4356-2"
       gradientUnits="userSpaceOnUse"
       cy="10.476"
       cx="11.827"
       gradientTransform="matrix(0.98599123,0,0,0.84779,17.986052,67.658686)"
       r="32.665001">
      <stop
         id="stop4352-3"
         stop-color="#fff"
         offset="0" />
      <stop
         id="stop4354-7"
         stop-color="#fff"
         stop-opacity="0"
         offset="1" />
    </radialGradient>
    <radialGradient
       id="radialGradient636-7"
       fx="18.934"
       fy="17.809999"
       gradientUnits="userSpaceOnUse"
       cy="17.486"
       cx="18.634001"
       gradientTransform="matrix(1.0185,0,0,0.94748,8.0182002,67.689569)"
       r="40.693001">
      <stop
         id="stop4752-9"
         stop-color="#fff"
         offset="0" />
      <stop
         id="stop4758-2"
         stop-color="#fefefe"
         offset=".37931" />
      <stop
         id="stop4754-0"
         stop-color="#1d1d1d"
         offset="1" />
    </radialGradient>
    <radialGradient
       id="radialGradient293-6"
       gradientUnits="userSpaceOnUse"
       cy="12.142"
       cx="15.601"
       gradientTransform="matrix(0.99999,0,0,1,8.0991522,67.658686)"
       r="43.527">
      <stop
         id="stop4128-1"
         stop-color="#fff"
         offset="0" />
      <stop
         id="stop4130-8"
         stop-color="#fff"
         stop-opacity=".16495"
         offset="1" />
    </radialGradient>
  </defs>
  <sodipodi:namedview
     id="base"
     pagecolor="#ffffff"
     bordercolor="#666666"
     borderopacity="1.0"
     inkscape:pageopacity="0.0"
     inkscape:pageshadow="2"
     inkscape:zoom="0.44994825"
     inkscape:cx="1185.1172"
     inkscape:cy="1083.401"
     inkscape:document-units="mm"
     inkscape:current-layer="layer1"
     showgrid="false"
     inkscape:window-width="1920"
     inkscape:window-height="1017"
     inkscape:window-x="0"
     inkscape:window-y="0"
     inkscape:window-maximized="0">
    <inkscape:grid
       type="xygrid"
       id="grid4565" />
  </sodipodi:namedview>
  <metadata
     id="metadata116">
    <rdf:RDF>
      <cc:Work
         rdf:about="">
        <dc:format>image/svg+xml</dc:format>
        <dc:type
           rdf:resource="http://purl.org/dc/dcmitype/StillImage" />
        <dc:title />
      </cc:Work>
    </rdf:RDF>
  </metadata>
  <g
     inkscape:label="Layer 1"
     inkscape:groupmode="layer"
     id="layer1"
     transform="translate(-18.558693,354.90685)">
    <g
       transform="matrix(1.0000014,0,0,0.99952127,139.24689,-319.76277)"
       id="g838">
      <g
         id="g4725"
         transform="matrix(0.8333333,0,0,0.8333333,13.093101,-25.832172)">
        <path
           style="fill:#0094c0;fill-opacity:1;stroke:none;stroke-width:0.76419014;stroke-opacity:1"
           d="M 18.558693,57.497027 V 25.093156 h 33.629791 33.629793 l -4.218775,2.76795 C 61.670776,40.936412 40.043304,59.53109 30.73676,71.591427 c -2.489353,3.22595 -6.24779,8.665285 -8.352082,12.087415 l -3.825985,6.222055 z"
           id="path4686"
           inkscape:connector-curvature="0" />
        <path
           style="fill:#005199;fill-opacity:1;stroke:none;stroke-width:0.76147354;stroke-opacity:1"
           d="m 70.825264,143.9068 c 5.43093,-1.97575 16.816894,-7.99688 24.166666,-12.77979 11.67483,-7.59749 33.92791,-26.12762 32.79198,-27.30587 -0.25109,-0.2604 -3.86255,1.4446 -8.02549,3.78891 -37.525812,21.13217 -64.736323,27.75864 -75.111741,18.29159 -11.68331,-10.66039 -0.05049,-40.68762 24.938411,-64.372276 16.472515,-15.612766 39.71804,-31.259255 49.01194,-32.989784 2.17851,-0.405637 2.89616,-0.189606 4.04402,1.217364 1.77006,2.169602 1.75134,3.711955 -0.13379,11.027719 -3.45741,13.417415 -14.19218,31.626316 -26.978444,45.762355 -1.63266,1.804998 -2.774236,3.474594 -2.536853,3.710207 0.5838,0.579437 10.654027,-6.951088 19.783277,-14.793943 10.51976,-9.037421 18.32957,-17.966405 23.36697,-26.715531 l 2.40232,-4.17244 0.007,50.258922 0.007,50.258917 -35.35038,-0.0535 c -31.491492,-0.0477 -36.296002,0.49687 -33.652766,-0.46473 z"
           id="path4690"
           inkscape:connector-curvature="0"
           sodipodi:nodetypes="cccscsccsccsccccccc" />
        <path
           style="fill:#0094c0;fill-opacity:1;stroke:none;stroke-width:0.1889881;stroke-opacity:1"
           d="m 18.589967,139.72487 v -5.31212 l 1.720265,1.5796 c 3.824168,3.51147 6.113259,5.18548 9.974145,7.29405 1.415805,0.77322 2.654983,1.48342 2.75373,1.57822 0.108278,0.10395 -2.723389,0.17236 -7.134301,0.17236 h -7.313839 z"
           id="path4713"
           inkscape:connector-curvature="0" />
      </g>
      <text
         xml:space="preserve"
         style="font-style:normal;font-weight:normal;font-size:13.63069439px;line-height:8.51918507px;font-family:sans-serif;letter-spacing:0px;word-spacing:0px;fill:#005199;fill-opacity:1;stroke:none;stroke-width:0.34076735px;stroke-linecap:butt;stroke-linejoin:miter;stroke-opacity:1"
         x="19.303144"
         y="134.48846"
         id="text110"
         transform="scale(0.99975846,1.0002416)"><tspan
           sodipodi:role="line"
           id="tspan108"
           x="19.303144"
           y="134.48846"
           style="font-style:normal;font-variant:normal;font-weight:normal;font-stretch:normal;font-size:56.79455948px;font-family:Armata;-inkscape-font-specification:'Armata Thin';fill:#005199;fill-opacity:1;stroke-width:0.34076735px">CASM</tspan></text>
    </g>
    <text
       id="text110-3-3-7"
       y="-137.54474"
       x="217.65797"
       style="font-style:normal;font-weight:normal;font-size:8.98502827px;line-height:5.61564159px;font-family:sans-serif;letter-spacing:0px;word-spacing:0px;fill:#000000;fill-opacity:1;stroke:none;stroke-width:0.22462565px;stroke-linecap:butt;stroke-linejoin:miter;stroke-opacity:1"
       xml:space="preserve"><tspan
         style="font-style:normal;font-variant:normal;font-weight:bold;font-stretch:normal;font-size:28.22222137px;line-height:25.62000084px;font-family:Armata;-inkscape-font-specification:'Armata Thin';text-align:center;text-anchor:middle;fill:#000000;fill-opacity:1;stroke-width:0.22462565px"
         y="-137.54474"
         x="217.65797"
         sodipodi:role="line"
         id="tspan949-5">Corinthian Abstract State Machine</tspan><tspan
         style="font-style:normal;font-variant:normal;font-weight:normal;font-stretch:normal;font-size:24.69444466px;line-height:25.62000084px;font-family:Armata;-inkscape-font-specification:'Armata Thin';text-align:center;text-anchor:middle;fill:#000000;fill-opacity:1;stroke-width:0.22462565px"
         y="-112.98307"
         x="217.65797"
         sodipodi:role="line"
         id="tspan979-7">Language, Interpreter and Compiler</tspan></text>
    <text
       id="text110-3-3"
       y="-6.1517868"
       x="218.28949"
       style="font-style:normal;font-weight:normal;font-size:8.98502827px;line-height:5.61564159px;font-family:sans-serif;letter-spacing:0px;word-spacing:0px;fill:#4d4d4d;fill-opacity:1;stroke:none;stroke-width:0.22462565px;stroke-linecap:butt;stroke-linejoin:miter;stroke-opacity:1"
       xml:space="preserve"><tspan
         style="font-style:normal;font-variant:normal;font-weight:normal;font-stretch:normal;font-size:12.34722233px;line-height:17.62000084px;font-family:Armata;-inkscape-font-specification:'Armata Thin';text-align:center;text-anchor:middle;fill:#4d4d4d;fill-opacity:1;stroke-width:0.22462565px"
         y="-6.1517868"
         x="218.28949"
         sodipodi:role="line"
         id="tspan1136">Puck, The Sandman by Neil Gaiman</tspan></text>
    <text
       id="text110-3-3-0"
       y="-71.315239"
       x="217.38098"
       style="font-style:normal;font-weight:normal;font-size:8.98502827px;line-height:5.61564159px;font-family:sans-serif;letter-spacing:0px;word-spacing:0px;fill:#4d4d4d;fill-opacity:1;stroke:none;stroke-width:0.22462565px;stroke-linecap:butt;stroke-linejoin:miter;stroke-opacity:1"
       xml:space="preserve"><tspan
         style="font-style:normal;font-variant:normal;font-weight:normal;font-stretch:normal;font-size:15.875px;line-height:15.61999989px;font-family:Armata;-inkscape-font-specification:'Armata Thin';text-align:center;text-anchor:middle;fill:#4d4d4d;fill-opacity:1;stroke-width:0.22462565px"
         y="-71.315239"
         x="217.38098"
         sodipodi:role="line"
         id="tspan971-9">The origin of the name <tspan
   style="font-style:italic;font-size:15.875px;line-height:15.61999989px;fill:#4d4d4d;stroke-width:0.22462565px"
   id="tspan973-3">Corinthian is unclear,</tspan></tspan><tspan
         style="font-style:italic;font-variant:normal;font-weight:normal;font-stretch:normal;font-size:15.875px;line-height:15.61999989px;font-family:Armata;-inkscape-font-specification:'Armata Thin';text-align:center;text-anchor:middle;fill:#4d4d4d;fill-opacity:1;stroke-width:0.22462565px"
         y="-55.69524"
         x="218.79175"
         sodipodi:role="line"
         id="tspan981-6">whether it is taken from ''the letters, </tspan><tspan
         style="font-style:italic;font-variant:normal;font-weight:normal;font-stretch:normal;font-size:15.875px;line-height:15.61999989px;font-family:Armata;-inkscape-font-specification:'Armata Thin';text-align:center;text-anchor:middle;fill:#4d4d4d;fill-opacity:1;stroke-width:0.22462565px"
         y="-40.075237"
         x="218.79175"
         sodipodi:role="line"
         id="tspan989-0">the pillars, the leather, the place, </tspan><tspan
         style="font-style:italic;font-variant:normal;font-weight:normal;font-stretch:normal;font-size:15.875px;line-height:15.61999989px;font-family:Armata;-inkscape-font-specification:'Armata Thin';text-align:center;text-anchor:middle;fill:#4d4d4d;fill-opacity:1;stroke-width:0.22462565px"
         y="-24.455238"
         x="217.38098"
         sodipodi:role="line"
         id="tspan995-6">or the mode of behavior''.</tspan><tspan
         style="font-style:normal;font-variant:normal;font-weight:normal;font-stretch:normal;font-size:15.875px;line-height:15.61999989px;font-family:Armata;-inkscape-font-specification:'Armata Thin';text-align:center;text-anchor:middle;fill:#4d4d4d;fill-opacity:1;stroke-width:0.22462565px"
         y="-16.265915"
         x="217.38098"
         sodipodi:role="line"
         id="tspan979-2" /></text>
    <text
       id="text110-3-3-9"
       y="60.336563"
       x="229.82996"
       style="font-style:normal;font-weight:normal;font-size:8.98502827px;line-height:5.61564159px;font-family:sans-serif;letter-spacing:0px;word-spacing:0px;fill:#000000;fill-opacity:1;stroke:none;stroke-width:0.22462565px;stroke-linecap:butt;stroke-linejoin:miter;stroke-opacity:1"
       xml:space="preserve"><tspan
         style="font-style:normal;font-variant:normal;font-weight:normal;font-stretch:normal;font-size:12.34722233px;line-height:17.62000084px;font-family:Armata;-inkscape-font-specification:'Armata Thin';text-align:center;text-anchor:middle;fill:#000000;fill-opacity:1;stroke-width:0.22462565px"
         y="60.336563"
         x="229.82996"
         sodipodi:role="line"
         id="tspan1136-4">https://casm-lang.org</tspan></text>
    <text
       id="text110-3-3-9-7"
       y="80.354103"
       x="229.65082"
       style="font-style:normal;font-weight:normal;font-size:8.98502827px;line-height:5.61564159px;font-family:sans-serif;letter-spacing:0px;word-spacing:0px;fill:#000000;fill-opacity:1;stroke:none;stroke-width:0.22462565px;stroke-linecap:butt;stroke-linejoin:miter;stroke-opacity:1"
       xml:space="preserve"><tspan
         style="font-style:normal;font-variant:normal;font-weight:normal;font-stretch:normal;font-size:12.34722233px;line-height:17.62000084px;font-family:Armata;-inkscape-font-specification:'Armata Thin';text-align:center;text-anchor:middle;fill:#000000;fill-opacity:1;stroke-width:0.22462565px"
         y="80.354103"
         x="229.65082"
         sodipodi:role="line"
         id="tspan1136-4-8">github.com/casm-lang</tspan></text>
    <text
       id="text110-3-3-9-7-4"
       y="101.51358"
       x="235.078"
       style="font-style:normal;font-weight:normal;font-size:8.98502827px;line-height:5.61564159px;font-family:sans-serif;letter-spacing:0px;word-spacing:0px;fill:#000000;fill-opacity:1;stroke:none;stroke-width:0.22462565px;stroke-linecap:butt;stroke-linejoin:miter;stroke-opacity:1"
       xml:space="preserve"><tspan
         style="font-style:normal;font-variant:normal;font-weight:normal;font-stretch:normal;font-size:12.34722233px;line-height:17.62000084px;font-family:Armata;-inkscape-font-specification:'Armata Thin';text-align:center;text-anchor:middle;fill:#000000;fill-opacity:1;stroke-width:0.22462565px"
         y="101.51358"
         x="235.078"
         sodipodi:role="line"
         id="tspan1136-4-8-5">twitter.com/casm_lang</tspan></text>
    <g
       id="Style_2_copy_3"
       transform="matrix(0.46875,0,0,0.46875,158.55869,50.09315)">
      <g
         id="g4651">
        <g
           id="g4649">
          <path
             id="path4647"
             d="M 16,0 C 7.163,0 0,7.163 0,16 0,24.836 7.163,32 16,32 24.837,32 32,24.836 32,16 32,7.163 24.837,0 16,0 Z"
             inkscape:connector-curvature="0"
             style="fill:#333333" />
        </g>
      </g>
      <g
         id="g4659">
        <path
           id="path4653"
           d="m 4.905,13.267 0.436,2.236 c 0.111,0.57 0.223,1.174 0.313,1.8 H 5.676 C 5.788,16.677 5.945,16.051 6.078,15.514 L 6.66,13.267 h 1.342 l 0.547,2.18 c 0.146,0.615 0.291,1.23 0.403,1.856 h 0.022 c 0.078,-0.626 0.19,-1.241 0.313,-1.867 l 0.47,-2.169 h 1.666 L 9.745,18.734 H 8.147 L 7.632,16.81 C 7.498,16.273 7.397,15.781 7.286,15.111 H 7.264 C 7.163,15.793 7.052,16.296 6.906,16.81 L 6.358,18.733 H 4.76 L 3.172,13.266 h 1.733 z"
           inkscape:connector-curvature="0"
           style="fill:#ffffff" />
        <path
           id="path4655"
           d="m 13.608,13.267 0.436,2.236 c 0.111,0.57 0.223,1.174 0.313,1.8 h 0.022 c 0.112,-0.626 0.269,-1.252 0.402,-1.789 l 0.582,-2.247 h 1.342 l 0.547,2.18 c 0.146,0.615 0.291,1.23 0.403,1.856 h 0.022 c 0.078,-0.626 0.19,-1.241 0.313,-1.867 l 0.47,-2.169 h 1.666 l -1.678,5.467 H 16.85 L 16.336,16.811 C 16.202,16.274 16.101,15.782 15.99,15.112 h -0.023 c -0.101,0.682 -0.212,1.185 -0.358,1.699 l -0.548,1.923 h -1.598 l -1.588,-5.467 z"
           inkscape:connector-curvature="0"
           style="fill:#ffffff" />
        <path
           id="path4657"
           d="m 22.31,13.267 0.436,2.236 c 0.111,0.57 0.223,1.174 0.313,1.8 h 0.022 c 0.112,-0.626 0.269,-1.252 0.402,-1.789 l 0.582,-2.247 h 1.342 l 0.547,2.18 c 0.146,0.615 0.291,1.23 0.403,1.856 h 0.022 c 0.078,-0.626 0.19,-1.241 0.313,-1.867 l 0.47,-2.169 h 1.666 l -1.678,5.467 h -1.598 l -0.514,-1.923 c -0.134,-0.537 -0.235,-1.029 -0.346,-1.699 h -0.023 c -0.101,0.682 -0.212,1.185 -0.358,1.699 l -0.548,1.923 h -1.598 l -1.588,-5.467 z"
           inkscape:connector-curvature="0"
           style="fill:#ffffff" />
      </g>
    </g>
    <g
       id="Layer_3"
       transform="matrix(0.234375,0,0,0.234375,158.55869,70.09315)">
      <g
         id="g4682">
        <g
           id="g4680">
          <path
             id="path4678"
             d="M 32,0 C 14.327,0 0,14.327 0,32 0,49.673 14.327,64 32,64 49.673,64 64,49.673 64,32 64,14.327 49.673,0 32,0 Z"
             inkscape:connector-curvature="0"
             style="fill:#333333" />
        </g>
      </g>
      <g
         id="Outline_Filled">
        <path
           id="Cat_3_"
           d="m 38.592,50.166 h -4.84 -4.844 c 0,0 0.014,-2.874 0,-4.844 -6.629,1.428 -8.479,-3.633 -8.479,-3.633 -1.21,-2.423 -2.423,-3.633 -2.423,-3.633 -2.423,-1.438 0,-1.21 0,-1.21 2.423,0 3.633,2.423 3.633,2.423 2.126,3.609 5.908,3.028 7.266,2.423 0,-1.21 0.53,-3.042 1.21,-3.633 -5.29,-0.595 -9.693,-3.633 -9.693,-9.689 0,-6.056 1.216,-7.266 2.427,-8.479 -0.244,-0.597 -1.259,-2.805 0.037,-6.056 0,0 2.38,0 4.803,3.633 1.2,-1.2 4.844,-1.21 6.056,-1.21 1.208,0 4.854,0.01 6.054,1.21 2.423,-3.633 4.809,-3.633 4.809,-3.633 1.296,3.251 0.282,5.459 0.037,6.056 1.21,1.21 2.423,2.423 2.423,8.479 0,6.056 -4.397,9.092 -9.689,9.689 0.682,0.591 1.21,2.675 1.21,3.633 z"
           inkscape:connector-curvature="0"
           style="fill:#ffffff" />
      </g>
    </g>
    <g
       id="Flat_copy"
       transform="matrix(0.46875,0,0,0.46875,158.55869,90.09315)">
      <g
         id="g4703">
        <path
           id="path4701"
           d="M 16,0 C 7.163,0 0,7.163 0,16 0,24.836 7.163,32 16,32 24.837,32 32,24.836 32,16 32,7.163 24.837,0 16,0 Z"
           inkscape:connector-curvature="0"
           style="fill:#333333" />
      </g>
      <path
         id="path4705"
         d="m 18.226,8.886 c -1.59,0.579 -2.595,2.071 -2.481,3.704 l 0.038,0.63 -0.636,-0.077 C 12.832,12.847 10.809,11.844 9.091,10.159 L 8.251,9.323 8.036,9.94 c -0.458,1.376 -0.165,2.83 0.789,3.808 0.509,0.54 0.394,0.617 -0.483,0.296 -0.305,-0.103 -0.573,-0.18 -0.598,-0.141 -0.089,0.09 0.216,1.26 0.458,1.724 0.331,0.644 1.005,1.273 1.743,1.647 l 0.624,0.296 -0.739,0.011 c -0.712,0 -0.738,0.013 -0.661,0.284 0.254,0.836 1.259,1.724 2.379,2.11 l 0.789,0.27 -0.687,0.412 c -1.018,0.593 -2.214,0.927 -3.41,0.951 -0.573,0.013 -1.044,0.064 -1.044,0.103 0,0.128 1.553,0.848 2.455,1.132 2.71,0.836 5.929,0.475 8.346,-0.952 1.718,-1.016 3.435,-3.036 4.237,-4.992 0.433,-1.041 0.865,-2.945 0.865,-3.858 0,-0.592 0.038,-0.669 0.75,-1.376 0.42,-0.412 0.814,-0.862 0.891,-0.99 0.128,-0.245 0.114,-0.245 -0.534,-0.026 -1.081,0.386 -1.234,0.335 -0.699,-0.244 0.394,-0.412 0.865,-1.158 0.865,-1.376 0,-0.038 -0.191,0.026 -0.407,0.141 -0.229,0.129 -0.738,0.322 -1.12,0.437 L 22.158,9.826 21.535,9.4 C 21.191,9.169 20.709,8.911 20.454,8.834 19.804,8.654 18.812,8.68 18.226,8.886 Z"
         inkscape:connector-curvature="0"
         style="fill:#ffffff" />
    </g>
    <text
       xml:space="preserve"
       style="font-style:normal;font-variant:normal;font-weight:bold;font-stretch:normal;font-size:10.58333302px;line-height:6.3499999px;font-family:Roboto;-inkscape-font-specification:'Sans Bold';text-align:center;letter-spacing:0px;word-spacing:0px;writing-mode:lr-tb;text-anchor:middle;fill:#000000;fill-opacity:1;stroke:none;stroke-width:0.26458332px;stroke-linecap:butt;stroke-linejoin:miter;stroke-opacity:1"
       x="343.15158"
       y="-117.16849"
       id="text4563"><tspan
         sodipodi:role="line"
         id="tspan4561"
         x="343.15158"
         y="-111.2443"
         style="stroke-width:0.26458332px"></tspan></text>
  </g>
</svg>
